<svg xmlns="http://www.w3.org/2000/svg" viewBox="0 0 320 120">
  <!-- Variant D: K-chip + ordmärke, white-on-teal -->
  <rect x="0" y="0" width="320" height="120" rx="8" fill="#0D7377"/>
  <g transform="translate(60,60)">
    <rect x="-32" y="-32" width="64" height="64" rx="8" fill="none" stroke="#14BDBD" stroke-width="1.2"/>
    <rect x="-20" y="-20" width="40" height="40" rx="5" fill="none" stroke="#FFFFFF" stroke-width="2"/>
    <text x="0" y="7" font-family="Inter, sans-serif" font-size="18" font-weight="700" fill="#FFFFFF" text-anchor="middle">K</text>
    <line x1="-14" y1="-32" x2="-14" y2="-48" stroke="#14BDBD" stroke-width="1.5"/>
    <circle cx="-14" cy="-51" r="3" fill="#14BDBD"/>
    <line x1="0" y1="-32" x2="0" y2="-44" stroke="#14BDBD" stroke-width="1.5"/>
    <circle cx="0" cy="-47" r="3" fill="#14BDBD"/>
    <line x1="14" y1="-32" x2="14" y2="-48" stroke="#14BDBD" stroke-width="1.5"/>
    <circle cx="14" cy="-51" r="3" fill="#14BDBD"/>
    <line x1="-14" y1="32" x2="-14" y2="48" stroke="#14BDBD" stroke-width="1.5"/>
    <circle cx="-14" cy="51" r="3" fill="#14BDBD"/>
    <line x1="0" y1="32" x2="0" y2="44" stroke="#14BDBD" stroke-width="1.5"/>
    <circle cx="0" cy="47" r="3" fill="#14BDBD"/>
    <line x1="14" y1="32" x2="14" y2="48" stroke="#14BDBD" stroke-width="1.5"/>
    <circle cx="14" cy="51" r="3" fill="#14BDBD"/>
    <line x1="-32" y1="-14" x2="-48" y2="-14" stroke="#14BDBD" stroke-width="1.5"/>
    <circle cx="-51" cy="-14" r="3" fill="#14BDBD"/>
    <line x1="-32" y1="0" x2="-44" y2="0" stroke="#14BDBD" stroke-width="1.5"/>
    <circle cx="-47" cy="0" r="3" fill="#14BDBD"/>
    <line x1="-32" y1="14" x2="-48" y2="14" stroke="#14BDBD" stroke-width="1.5"/>
    <circle cx="-51" cy="14" r="3" fill="#14BDBD"/>
    <line x1="32" y1="-14" x2="48" y2="-14" stroke="#14BDBD" stroke-width="1.5"/>
    <circle cx="51" cy="-14" r="3" fill="#14BDBD"/>
    <line x1="32" y1="0" x2="44" y2="0" stroke="#14BDBD" stroke-width="1.5"/>
    <circle cx="47" cy="0" r="3" fill="#14BDBD"/>
    <line x1="32" y1="14" x2="48" y2="14" stroke="#14BDBD" stroke-width="1.5"/>
    <circle cx="51" cy="14" r="3" fill="#14BDBD"/>
  </g>
  <!-- Wordmark -->
  <text x="125" y="53" font-family="Inter, sans-serif" font-size="16" font-weight="700" fill="#FFFFFF" letter-spacing="-0.3">Kapital-</text>
  <text x="125" y="73" font-family="Inter, sans-serif" font-size="16" font-weight="700" fill="#FFFFFF" letter-spacing="-0.3">plattformen</text>
</svg>
